<svg xmlns="http://www.w3.org/2000/svg" viewBox="0 0 32 32" role="img" aria-label="Pacsmith">
  <!--
    Pacsmith mark: an anvil. Deliberately not derived from, and not resembling,
    any Federal Reserve or payment-operator branding; the palette is the
    project's own forge-ember orange on slate.
  -->
  <title>Pacsmith</title>
  <rect width="32" height="32" rx="7" fill="#17181c"/>
  <g fill="#e2711d">
    <path d="M4.2 10.5h23.6a.8.8 0 0 1 .66 1.25l-2.1 3.1a1.2 1.2 0 0 1-1 .53H6.64a1.2 1.2 0 0 1-1-.53l-2.1-3.1a.8.8 0 0 1 .66-1.25Z"/>
    <path d="M4.4 10.5 1.6 8.7a.6.6 0 0 1 .33-1.1H8.2v2.9Z"/>
    <path d="M13.2 15.9h5.6l1.5 5.3h-8.6Z"/>
    <rect x="7.6" y="21.2" width="16.8" height="3.3" rx="1"/>
  </g>
</svg>
